<svg id="Layer_1" data-name="Layer 1" xmlns="http://www.w3.org/2000/svg" viewBox="0 0 57.3 91.2"><polygon points="28.6 19.1 45.2 35.6 42.9 38 28.6 23.8 14.4 38 12.1 35.6 28.6 19.1"/><rect x="27" y="21.5" width="3.3" height="53.3"/><path d="M28.7,0A28.64,28.64,0,0,1,57.3,28.5V62.7A28.77,28.77,0,0,1,28.7,91.2h-.2A28.7,28.7,0,0,1,0,62.3V28.4A28.73,28.73,0,0,1,28.5,0ZM56.3,28.5A27.7,27.7,0,0,0,28.7,1h-.2A27.74,27.74,0,0,0,1,28.5V62.4A27.68,27.68,0,0,0,28.5,90.2h.2A27.63,27.63,0,0,0,56.3,62.7V28.5Z"/></svg>