<svg xmlns="http://www.w3.org/2000/svg" viewBox="0 0 67.46 24.02"><g style="isolation:isolate"><g style="isolation:isolate"><path d="M11.89,12.34H4.4a3.17,3.17,0,0,0,.83,2.05,2.57,2.57,0,0,0,1.9.75,2.47,2.47,0,0,0,1.5-.43A6,6,0,0,0,10,13.12l2,1.14a8.19,8.19,0,0,1-1,1.38,5.54,5.54,0,0,1-1.13.95,4.82,4.82,0,0,1-1.3.54,6.52,6.52,0,0,1-1.51.17,4.93,4.93,0,0,1-3.76-1.5,5.63,5.63,0,0,1-1.42-4,5.79,5.79,0,0,1,1.38-4A4.72,4.72,0,0,1,6.92,6.25a4.69,4.69,0,0,1,3.65,1.47,5.77,5.77,0,0,1,1.33,4.05Zm-2.48-2A2.31,2.31,0,0,0,7,8.43a2.43,2.43,0,0,0-.82.13A2.34,2.34,0,0,0,5.44,9a2.44,2.44,0,0,0-.54.61,2.76,2.76,0,0,0-.34.8Z" transform="translate(-1.87 1.33)"/><path d="M14.54,6.54H17v1a4,4,0,0,1,2.86-1.25A3.6,3.6,0,0,1,22.67,7.4a4.73,4.73,0,0,1,.88,3.19V17H21.12V11.16A3.78,3.78,0,0,0,20.69,9a1.73,1.73,0,0,0-1.52-.6,1.85,1.85,0,0,0-1.71.79A5.46,5.46,0,0,0,17,12V17H14.54Z" transform="translate(-1.87 1.33)"/><path d="M41.19-1.33l2,.88-9.5,22-2-.89Z" transform="translate(-1.87 1.33)"/><path d="M54,22.69H51.58V6.54H54V7.68a4.45,4.45,0,0,1,3.25-1.43,4.51,4.51,0,0,1,3.55,1.59,5.71,5.71,0,0,1,1.42,4,5.63,5.63,0,0,1-1.41,3.92,4.58,4.58,0,0,1-6.81.09Zm5.75-10.86a3.59,3.59,0,0,0-.82-2.45,2.64,2.64,0,0,0-2.08-1,2.77,2.77,0,0,0-2.16.92,3.53,3.53,0,0,0-.83,2.43,3.6,3.6,0,0,0,.83,2.43,2.71,2.71,0,0,0,2.15.93,2.6,2.6,0,0,0,2.07-.94A3.44,3.44,0,0,0,59.74,11.83Z" transform="translate(-1.87 1.33)"/><path d="M67.45,8.79V17H65V8.79H64V6.54h1V2.7h2.41V6.54h1.88V8.79Z" transform="translate(-1.87 1.33)"/></g></g></svg>