<svg width="817" height="40" viewBox="0 0 817 40" fill="none" xmlns="http://www.w3.org/2000/svg">
<g clip-path="url(#clip0_3_37)">
<path d="M4.49409 4.70889L11.5657 23.0157L19.0834 3.30448L26.2211 22.9496L33.7883 4.70889H38.2824L26.0393 33.8544L18.9842 14.4241L11.6483 33.8709L0 4.70889H4.49409Z" fill="black"/>
<path d="M39.6538 23.3462C39.6338 22.1542 39.863 20.9711 40.3267 19.8729C40.7905 18.7746 41.4786 17.7854 42.3469 16.9685C44.1048 15.2764 46.4499 14.331 48.8898 14.331C51.3298 14.331 53.6748 15.2764 55.4327 16.9685C56.299 17.8095 56.9825 18.8203 57.4402 19.9376C57.8979 21.0549 58.1201 22.2547 58.0928 23.4618C58.1215 24.6755 57.8985 25.882 57.4379 27.0053C56.9772 28.1285 56.2888 29.1442 55.4162 29.9882C54.5428 30.8389 53.5083 31.5066 52.3734 31.9521C51.2385 32.3975 50.026 32.6117 48.8072 32.5822C47.5946 32.6141 46.3885 32.3941 45.2652 31.9363C44.1419 31.4784 43.1257 30.7926 42.2809 29.9221C41.4181 29.0627 40.7401 28.0362 40.2884 26.9054C39.8366 25.7746 39.6207 24.5634 39.6538 23.3462ZM43.7348 23.3462C43.6516 24.8399 44.1489 26.308 45.1227 27.4437C46.1229 28.4216 47.4662 28.9691 48.865 28.9691C50.2639 28.9691 51.6071 28.4216 52.6074 27.4437C53.5846 26.3352 54.0888 24.888 54.0118 23.4123C54.088 21.9416 53.5836 20.4998 52.6074 19.3973C51.6169 18.4136 50.2775 17.8615 48.8816 17.8615C47.4856 17.8615 46.1462 18.4136 45.1557 19.3973C44.6692 19.9414 44.2948 20.576 44.0538 21.2649C43.8128 21.9539 43.71 22.6836 43.7513 23.4123L43.7348 23.3462Z" fill="black"/>
<path d="M64.1565 14.8702H68.1549V16.4233C68.7046 15.7641 69.3642 15.2051 70.1046 14.771C70.7475 14.4597 71.4557 14.3067 72.1699 14.3249C73.3437 14.3613 74.4858 14.7153 75.4743 15.3493L73.6569 19.0173C73.0192 18.5134 72.2384 18.2242 71.4263 18.1912C69.2619 18.1912 68.1219 19.8434 68.1219 23.1479V32.103H64.1565V14.8702Z" fill="black"/>
<path d="M84.1156 2.13139V20.4052L89.7332 14.8702H95.103L87.5688 22.0739L95.6317 32.103H90.4602L84.7599 24.7836L84.1156 25.428V32.0369H80.1172V2.13139H84.1156Z" fill="black"/>
<path d="M649.331 3.05665V30.4508H645.2V3.05665H649.331Z" fill="black"/>
<path d="M656.931 13.2179H660.896V14.8702C661.498 14.2205 662.226 13.7006 663.036 13.3426C663.845 12.9846 664.72 12.796 665.605 12.7883C666.482 12.7379 667.358 12.8821 668.173 13.2107C668.987 13.5392 669.718 14.0438 670.314 14.6884C671.424 16.2096 671.941 18.0837 671.768 19.9591V30.5499H667.753V20.8017C667.864 19.5792 667.617 18.3507 667.043 17.2659C666.739 16.9054 666.351 16.626 665.912 16.4529C665.474 16.2799 664.999 16.2186 664.531 16.2746C663.986 16.2262 663.437 16.323 662.941 16.5551C662.444 16.7873 662.018 17.1465 661.706 17.5964C661.05 19.0045 660.771 20.5587 660.896 22.107V30.3682H656.931V13.2179Z" fill="black"/>
<path d="M688.72 16.1094L685.416 17.8772C684.903 16.8033 684.259 16.225 683.482 16.225C683.133 16.2168 682.794 16.3475 682.541 16.5885C682.418 16.709 682.321 16.8532 682.256 17.0122C682.191 17.1712 682.158 17.3419 682.161 17.5138C682.161 18.1912 682.921 18.8355 684.457 19.4964C686.025 20.0654 687.475 20.9166 688.737 22.0078C689.117 22.4267 689.411 22.9169 689.601 23.45C689.791 23.9832 689.874 24.5488 689.844 25.1141C689.86 25.9062 689.702 26.6922 689.383 27.4171C689.063 28.1421 688.589 28.7884 687.993 29.3108C687.19 30.0042 686.231 30.494 685.198 30.7386C684.166 30.9833 683.089 30.9757 682.06 30.7163C681.031 30.457 680.079 29.9537 679.286 29.2489C678.492 28.5441 677.88 27.6585 677.501 26.6672L680.905 25.0149C681.198 25.6088 681.565 26.1638 681.995 26.6672C682.463 27.1114 683.086 27.3547 683.73 27.3446C685.085 27.3446 685.762 26.7167 685.762 25.4941C685.762 24.7836 685.234 24.1227 684.193 23.4949L682.987 22.9166L681.764 22.3383C680.846 21.9577 680.014 21.3957 679.319 20.6861C678.685 19.9038 678.362 18.9158 678.41 17.9103C678.39 17.2149 678.516 16.523 678.781 15.8797C679.046 15.2364 679.443 14.656 679.947 14.1762C680.986 13.2084 682.36 12.6812 683.78 12.7057C684.853 12.6987 685.902 13.0214 686.786 13.6302C687.669 14.2389 688.344 15.1043 688.72 16.1094V16.1094Z" fill="black"/>
<path d="M699.36 16.9024V30.4508H695.362V16.9024H693.71V13.2179H695.362V6.84028H699.36V13.2179H702.467V16.952L699.36 16.9024Z" fill="black"/>
<path d="M720.063 13.2179H724.078V30.4508H720.063V28.6499C719.324 29.4005 718.439 29.9915 717.462 30.3862C716.485 30.7809 715.438 30.971 714.385 30.9446C713.331 30.9183 712.295 30.6761 711.339 30.2331C710.383 29.7901 709.529 29.1556 708.828 28.369C707.25 26.5358 706.419 24.1771 706.498 21.76C706.413 19.3849 707.241 17.0674 708.811 15.2832C709.53 14.4489 710.423 13.7837 711.429 13.3352C712.434 12.8868 713.526 12.6662 714.627 12.6892C715.653 12.7022 716.665 12.9294 717.599 13.3561C718.532 13.7829 719.366 14.3999 720.047 15.1676L720.063 13.2179ZM710.579 21.8096C710.516 23.2771 710.992 24.7169 711.918 25.8576C712.328 26.3752 712.85 26.7929 713.446 27.0791C714.041 27.3653 714.694 27.5126 715.354 27.5098C716.028 27.5348 716.699 27.4099 717.319 27.1442C717.939 26.8785 718.493 26.4786 718.94 25.9732C719.877 24.8505 720.366 23.4201 720.311 21.9583C720.367 20.5014 719.878 19.0759 718.94 17.9599C718.516 17.4346 717.98 17.0117 717.371 16.7228C716.761 16.4338 716.095 16.2862 715.42 16.2911C714.76 16.2919 714.109 16.4408 713.514 16.7267C712.919 17.0127 712.396 17.4284 711.984 17.9433C711.065 19.0012 710.565 20.3589 710.579 21.76V21.8096Z" fill="black"/>
<path d="M747.655 30.0543C747.655 30.8639 747.655 31.5908 747.573 32.2022C747.531 32.7572 747.453 33.3091 747.342 33.8544C747.086 35.0803 746.517 36.2189 745.689 37.1589C744.886 38.058 743.892 38.7665 742.78 39.2324C741.668 39.6983 740.466 39.91 739.262 39.8521C737.213 39.9299 735.203 39.2737 733.595 38.0015C732.818 37.3417 732.182 36.5319 731.725 35.6206C731.268 34.7094 730.999 33.7153 730.935 32.6978H734.933C735.036 33.4045 735.302 34.0776 735.71 34.664C736.135 35.2107 736.686 35.6465 737.316 35.9342C737.946 36.2219 738.636 36.353 739.328 36.3163C742.253 36.3163 743.707 34.5153 743.707 30.9299V28.5177C743.01 29.2797 742.163 29.889 741.218 30.3071C740.274 30.7251 739.254 30.9428 738.221 30.9465C737.129 30.9776 736.043 30.7655 735.043 30.3254C734.043 29.8854 733.153 29.2284 732.438 28.402C730.896 26.6037 730.083 24.2932 730.158 21.9252C730.088 19.6011 730.836 17.3261 732.273 15.498C732.984 14.5943 733.897 13.8696 734.939 13.3819C735.98 12.8941 737.121 12.6569 738.271 12.6892C739.3 12.6677 740.321 12.8743 741.261 13.2942C742.201 13.7142 743.036 14.337 743.707 15.118V13.2179H747.705L747.655 30.0543ZM743.822 21.7931C743.892 20.332 743.408 18.8984 742.467 17.7781C742.036 17.2744 741.498 16.8735 740.892 16.6047C740.286 16.336 739.627 16.2062 738.965 16.225C738.279 16.1951 737.595 16.3294 736.972 16.6168C736.348 16.9041 735.802 17.3363 735.379 17.8772C734.549 19.0032 734.13 20.3791 734.19 21.7765C734.129 23.1689 734.549 24.5396 735.379 25.6593C735.805 26.1972 736.351 26.6272 736.974 26.9142C737.597 27.2013 738.279 27.3374 738.965 27.3115C739.658 27.3414 740.348 27.2073 740.98 26.9202C741.611 26.6331 742.166 26.2011 742.6 25.6593C743.433 24.5649 743.864 23.2174 743.822 21.8426V21.7931Z" fill="black"/>
<path d="M754.512 13.2179H758.494V14.771C759.049 14.1109 759.714 13.5519 760.46 13.1188C761.097 12.8076 761.8 12.6546 762.509 12.6727C763.683 12.7099 764.825 13.0638 765.814 13.6971L763.996 17.3651C763.358 16.8611 762.578 16.572 761.766 16.5389C759.585 16.5389 758.461 18.1912 758.461 21.4957V30.4508H754.479L754.512 13.2179Z" fill="black"/>
<path d="M782.419 13.2179H786.467V30.4508H782.452V28.6499C781.712 29.4005 780.827 29.9915 779.85 30.3862C778.874 30.7809 777.826 30.971 776.773 30.9446C775.72 30.9183 774.683 30.6761 773.728 30.2331C772.772 29.7901 771.917 29.1556 771.216 28.369C769.639 26.5358 768.808 24.1771 768.887 21.76C768.807 19.3826 769.64 17.0649 771.216 15.2832C771.935 14.4489 772.829 13.7837 773.834 13.3352C774.839 12.8868 775.932 12.6662 777.032 12.6892C778.058 12.7022 779.07 12.9294 780.004 13.3561C780.937 13.7829 781.771 14.3999 782.452 15.1676L782.419 13.2179ZM772.935 21.8096C772.872 23.2771 773.348 24.7169 774.273 25.8576C774.682 26.3771 775.204 26.7961 775.8 27.0825C776.395 27.3689 777.049 27.5151 777.71 27.5098C778.384 27.5348 779.055 27.4099 779.675 27.1442C780.295 26.8785 780.848 26.4786 781.295 25.9732C782.233 24.8505 782.722 23.4201 782.666 21.9583C782.722 20.5014 782.233 19.0759 781.295 17.9599C780.856 17.4523 780.31 17.0493 779.695 16.7805C779.08 16.5118 778.413 16.3841 777.743 16.4068C777.083 16.4076 776.431 16.5564 775.837 16.8424C775.242 17.1283 774.719 17.5441 774.306 18.059C773.425 19.0915 772.939 20.4029 772.935 21.76V21.8096Z" fill="black"/>
<path d="M793.29 13.2179H797.272V14.8702C797.843 14.219 798.512 13.6614 799.255 13.2179C799.936 12.8983 800.684 12.7454 801.436 12.7718C802.364 12.7567 803.279 12.9853 804.091 13.4346C804.903 13.884 805.582 14.5385 806.062 15.3328C806.633 14.5186 807.396 13.8585 808.284 13.4115C809.172 12.9646 810.157 12.7448 811.151 12.7718C815.05 12.7718 817 15.1345 817 19.8599V30.5334H812.985V20.8513C813.073 19.6528 812.869 18.4509 812.39 17.3485C812.182 16.9985 811.879 16.7139 811.517 16.527C811.155 16.3401 810.748 16.2583 810.341 16.2911C809.865 16.2587 809.388 16.357 808.963 16.5753C808.538 16.7937 808.181 17.1239 807.929 17.5303C807.346 18.7783 807.09 20.1544 807.186 21.5287V30.4508H803.171V20.9008C803.171 17.8277 802.279 16.2911 800.511 16.2911C800.025 16.2585 799.54 16.358 799.106 16.5791C798.673 16.8002 798.307 17.1346 798.049 17.5468C797.448 18.7838 797.18 20.1564 797.272 21.5287V30.4508H793.29V13.2179Z" fill="black"/>
<path d="M217.468 3.05665V30.4508H213.321V3.05665H217.468Z" fill="black"/>
<path d="M225.101 13.2179H229.116V14.8702C229.724 14.2238 230.455 13.7063 231.267 13.3487C232.079 12.991 232.955 12.8004 233.842 12.7883C234.716 12.7392 235.589 12.8841 236.401 13.2126C237.212 13.5411 237.94 14.0451 238.534 14.6884C239.644 16.2096 240.161 18.0837 239.988 19.9591V30.5499H235.99V20.8017C236.092 19.5796 235.846 18.3535 235.279 17.2659C234.972 16.9052 234.581 16.6259 234.14 16.453C233.699 16.28 233.222 16.2187 232.751 16.2746C232.205 16.2262 231.657 16.323 231.161 16.5551C230.664 16.7872 230.238 17.1465 229.926 17.5964C229.27 19.0045 228.991 20.5587 229.116 22.107V30.3682H225.101V13.2179Z" fill="black"/>
<path d="M250.992 16.9024V30.4508H246.977V16.9024H245.556V13.2179H246.977V6.60897C246.824 4.9876 247.226 3.36225 248.117 1.99921C248.667 1.33625 249.364 0.810464 250.153 0.463471C250.942 0.116478 251.8 -0.0421974 252.661 3.43855e-06C253.584 0.0418418 254.492 0.254732 255.337 0.627855V4.70889L254.924 4.4941C254.273 4.11466 253.544 3.88863 252.793 3.8332C252.505 3.79996 252.213 3.85478 251.956 3.99044C251.7 4.1261 251.49 4.33624 251.355 4.59323C251.046 5.51822 250.922 6.49524 250.992 7.46813V13.2179H255.337V16.952L250.992 16.9024Z" fill="black"/>
<path d="M259.088 21.6939C259.069 20.5036 259.297 19.3222 259.757 18.2244C260.218 17.1267 260.902 16.1365 261.764 15.3163C263.527 13.6268 265.874 12.6836 268.316 12.6836C270.757 12.6836 273.104 13.6268 274.867 15.3163C275.741 16.1574 276.433 17.1694 276.899 18.2893C277.365 19.4093 277.596 20.6132 277.576 21.8261C277.605 23.0398 277.382 24.2463 276.922 25.3696C276.461 26.4928 275.772 27.5084 274.9 28.3525C274.025 29.2017 272.991 29.8684 271.856 30.3137C270.721 30.7591 269.509 30.9742 268.291 30.9465C267.081 30.9781 265.877 30.7579 264.757 30.3C263.636 29.8421 262.623 29.1564 261.781 28.2864C260.904 27.4307 260.213 26.404 259.75 25.2699C259.286 24.1359 259.061 22.9187 259.088 21.6939V21.6939ZM263.169 21.6939C263.086 23.1877 263.583 24.6558 264.557 25.7915C265.557 26.7694 266.9 27.3169 268.299 27.3169C269.698 27.3169 271.041 26.7694 272.041 25.7915C273.019 24.683 273.523 23.2358 273.446 21.76C273.522 20.2894 273.018 18.8476 272.041 17.7451C271.564 17.234 270.981 16.8321 270.334 16.5669C269.687 16.3017 268.99 16.1794 268.291 16.2085C267.6 16.1823 266.911 16.306 266.272 16.5713C265.633 16.8365 265.059 17.237 264.59 17.7451C264.1 18.2878 263.723 18.9219 263.479 19.6109C263.235 20.2998 263.13 21.0302 263.169 21.76V21.6939Z" fill="black"/>
<path d="M419.14 4.52714V9.48386C417.102 7.63643 414.472 6.57613 411.722 6.49331C410.387 6.46641 409.062 6.72355 407.834 7.24768C406.607 7.77181 405.504 8.55095 404.601 9.53343C403.65 10.5061 402.902 11.659 402.403 12.9244C401.904 14.1899 401.662 15.5424 401.693 16.9024C401.664 18.2499 401.906 19.5894 402.406 20.8412C402.906 22.093 403.652 23.2315 404.601 24.1888C405.522 25.1477 406.632 25.9055 407.86 26.4145C409.088 26.9235 410.409 27.1727 411.738 27.1463C413.009 27.1863 414.274 26.9437 415.439 26.4359C416.061 26.1808 416.654 25.8595 417.207 25.4776C417.883 25.0357 418.529 24.55 419.14 24.0236V28.9803C416.876 30.2907 414.305 30.9803 411.689 30.9795C409.833 30.9926 407.993 30.6387 406.275 29.9381C404.557 29.2376 402.994 28.2042 401.677 26.8975C400.359 25.5907 399.313 24.0364 398.598 22.3239C397.884 20.6114 397.515 18.7746 397.513 16.9189C397.487 13.4873 398.722 10.1656 400.982 7.58379C402.321 5.97365 404.01 4.69024 405.919 3.83129C407.829 2.97233 409.91 2.56047 412.003 2.62707C414.509 2.60898 416.975 3.26525 419.14 4.52714V4.52714Z" fill="black"/>
<path d="M424.626 21.6939C424.607 20.5036 424.835 19.3222 425.295 18.2244C425.756 17.1267 426.44 16.1365 427.302 15.3163C429.065 13.6268 431.412 12.6836 433.854 12.6836C436.295 12.6836 438.642 13.6268 440.405 15.3163C441.268 16.1597 441.949 17.1709 442.407 18.2877C442.864 19.4044 443.088 20.603 443.065 21.8096C443.094 23.0233 442.871 24.2298 442.41 25.353C441.949 26.4763 441.261 27.4919 440.388 28.3359C439.514 29.1859 438.48 29.8531 437.345 30.2985C436.21 30.7439 434.998 30.9586 433.779 30.9299C432.569 30.9615 431.366 30.7414 430.245 30.2835C429.124 29.8256 428.111 29.1399 427.269 28.2698C426.404 27.4119 425.723 26.3859 425.268 25.2551C424.813 24.1242 424.595 22.9123 424.626 21.6939V21.6939ZM428.707 21.6939C428.624 23.1877 429.121 24.6558 430.095 25.7915C431.095 26.7694 432.438 27.3169 433.837 27.3169C435.236 27.3169 436.579 26.7694 437.579 25.7915C438.557 24.683 439.061 23.2358 438.984 21.76C439.06 20.2894 438.556 18.8476 437.579 17.7451C436.589 16.7613 435.25 16.2092 433.854 16.2092C432.458 16.2092 431.118 16.7613 430.128 17.7451C429.632 18.2852 429.249 18.9181 428.999 19.6072C428.75 20.2963 428.639 21.0279 428.674 21.76L428.707 21.6939Z" fill="black"/>
<path d="M449.079 13.2179H453.094V14.8702C453.695 14.2205 454.423 13.7006 455.233 13.3426C456.043 12.9846 456.917 12.796 457.803 12.7883C458.679 12.7379 459.556 12.8821 460.37 13.2107C461.184 13.5392 461.916 14.0438 462.512 14.6884C463.622 16.2096 464.139 18.0837 463.966 19.9591V30.5499H459.951V20.8017C460.062 19.5792 459.815 18.3507 459.24 17.2659C458.937 16.9054 458.548 16.626 458.11 16.4529C457.671 16.2799 457.197 16.2186 456.729 16.2746C456.183 16.2262 455.635 16.323 455.138 16.5551C454.642 16.7873 454.216 17.1465 453.904 17.5964C453.248 19.0045 452.969 20.5587 453.094 22.107V30.3682H449.079V13.2179Z" fill="black"/>
<path d="M474.937 16.9024V30.4508H470.889V16.9024H469.236V13.2179H470.889V6.84028H474.871V13.2179H477.977V16.952L474.937 16.9024Z" fill="black"/>
<path d="M495.672 13.2179H499.687V30.4508H495.672V28.6499C494.933 29.4005 494.048 29.9915 493.071 30.3862C492.094 30.7809 491.047 30.971 489.994 30.9446C488.941 30.9183 487.904 30.6761 486.948 30.2331C485.992 29.7901 485.138 29.1556 484.437 28.369C482.864 26.5341 482.039 24.1752 482.124 21.76C482.037 19.3846 482.865 17.0665 484.437 15.2832C485.159 14.4485 486.055 13.7833 487.063 13.3349C488.072 12.8865 489.166 12.666 490.269 12.6892C491.293 12.7025 492.303 12.9298 493.233 13.3567C494.164 13.7835 494.994 14.4004 495.672 15.1676V13.2179ZM486.205 21.8096C486.143 23.2741 486.613 24.7117 487.527 25.8576C487.939 26.3774 488.464 26.7964 489.062 27.0827C489.661 27.3691 490.317 27.5151 490.98 27.5098C491.653 27.5314 492.324 27.4049 492.943 27.1394C493.563 26.874 494.116 26.4759 494.565 25.9732C495.497 24.8481 495.98 23.418 495.92 21.9583C495.98 20.5035 495.497 19.0783 494.565 17.9599C494.126 17.4532 493.579 17.0508 492.964 16.7822C492.35 16.5135 491.683 16.3853 491.013 16.4068C490.351 16.4075 489.697 16.5562 489.099 16.842C488.502 17.1279 487.976 17.5437 487.56 18.059C486.672 19.0884 486.18 20.4006 486.172 21.76L486.205 21.8096Z" fill="black"/>
<path d="M519.96 13.9119V19.2156C519.284 18.3186 518.457 17.5469 517.515 16.9355C516.759 16.4929 515.895 16.2697 515.02 16.2911C514.313 16.2831 513.613 16.4265 512.966 16.7114C512.319 16.9964 511.741 17.4164 511.269 17.9433C510.272 19.0116 509.737 20.4312 509.782 21.8922C509.727 23.3607 510.242 24.7938 511.22 25.8906C511.688 26.4021 512.261 26.807 512.9 27.0778C513.538 27.3486 514.227 27.479 514.921 27.4602C515.809 27.4767 516.686 27.2602 517.465 26.8324C518.425 26.1994 519.269 25.4057 519.96 24.4862V29.7403C518.467 30.5481 516.8 30.9791 515.103 30.996C513.87 31.0309 512.642 30.821 511.491 30.3786C510.339 29.9362 509.287 29.27 508.394 28.4185C507.519 27.5866 506.826 26.5806 506.363 25.4651C505.899 24.3497 505.674 23.1495 505.701 21.9418C505.667 20.7106 505.893 19.4861 506.362 18.3476C506.832 17.2091 507.535 16.1819 508.428 15.3328C509.311 14.4634 510.36 13.78 511.512 13.3231C512.664 12.8662 513.896 12.645 515.136 12.6727C516.822 12.6749 518.481 13.101 519.96 13.9119V13.9119Z" fill="black"/>
<path d="M529.774 16.9024V30.4508H525.776V16.9024H524.124V13.2179H525.776V6.84028H529.774V13.2179H532.881V16.952L529.774 16.9024Z" fill="black"/>
</g>
<defs>
<clipPath id="clip0_3_37">
<rect width="817" height="39.9016" fill="white"/>
</clipPath>
</defs>
</svg>
