<svg width="86" height="162" viewBox="0 0 86 162" fill="none" xmlns="http://www.w3.org/2000/svg">
<g clip-path="url(#clip0_1_2)">
<path d="M10.36 4.87H4.36001V8.59H10.11V11.41H4.39001V15.91H10.39V18.73H1.14001V2.06H10.36V4.87Z" fill="white"/>
<path d="M21.31 0H24.31V18.73H21.31V17.33C20.8858 17.8841 20.337 18.3304 19.708 18.6327C19.079 18.935 18.3877 19.0849 17.69 19.07C16.9811 19.084 16.2777 18.9437 15.6284 18.6588C14.9792 18.3739 14.3996 17.9512 13.93 17.42C12.9138 16.3056 12.3753 14.8371 12.43 13.33C12.3812 11.8208 12.9188 10.3514 13.93 9.23C14.3879 8.70162 14.9549 8.27874 15.5919 7.99045C16.2289 7.70216 16.9208 7.55531 17.62 7.56C18.3228 7.55548 19.0174 7.71065 19.6514 8.01381C20.2854 8.31696 20.8423 8.76018 21.28 9.31L21.31 0ZM20.75 11.17C20.4725 10.8812 20.1382 10.6531 19.7682 10.4999C19.3982 10.3467 19.0004 10.2719 18.6 10.28C18.1995 10.275 17.802 10.3504 17.431 10.5015C17.06 10.6526 16.7231 10.8765 16.44 11.16C15.8721 11.7314 15.5533 12.5044 15.5533 13.31C15.5533 14.1156 15.8721 14.8886 16.44 15.46C16.7192 15.7442 17.0523 15.97 17.4197 16.1241C17.7871 16.2782 18.1816 16.3575 18.58 16.3575C18.9784 16.3575 19.3729 16.2782 19.7403 16.1241C20.1077 15.97 20.4408 15.7442 20.72 15.46C21.0098 15.1849 21.2394 14.8527 21.3943 14.4843C21.5492 14.116 21.6261 13.7195 21.62 13.32C21.6249 12.9218 21.5506 12.5267 21.4012 12.1575C21.2518 11.7884 21.0305 11.4527 20.75 11.17V11.17Z" fill="white"/>
<path d="M27.42 2.03999C27.672 1.78396 27.9945 1.6087 28.3464 1.53653C28.6983 1.46437 29.0638 1.49855 29.3962 1.63474C29.7286 1.77093 30.013 2.00295 30.2131 2.30128C30.4133 2.59961 30.5201 2.95075 30.52 3.30999C30.5256 3.55145 30.4814 3.79147 30.3902 4.01512C30.2991 4.23877 30.1628 4.44126 29.99 4.60999C29.8223 4.78235 29.6217 4.91935 29.4002 5.0129C29.1786 5.10644 28.9405 5.15464 28.7 5.15464C28.4595 5.15464 28.2214 5.10644 27.9999 5.0129C27.7783 4.91935 27.5777 4.78235 27.41 4.60999C27.2359 4.44176 27.0981 4.23959 27.0052 4.01598C26.9123 3.79237 26.8663 3.55209 26.87 3.30999C26.8693 3.07184 26.9178 2.83613 27.0125 2.61759C27.1071 2.39906 27.2459 2.20242 27.42 2.03999V2.03999ZM30.19 7.89999V18.73H27.19V7.89999H30.19Z" fill="white"/>
<path d="M36.1 10.53V18.73H33.1V10.53H31.93V7.90001H33.13V4.20001H36.13V7.90001H38.28V10.53H36.1Z" fill="white"/>
<path d="M40.17 2.03999C40.3398 1.8686 40.5425 1.7333 40.7659 1.64222C40.9893 1.55115 41.2288 1.50617 41.47 1.50999C41.708 1.50596 41.9443 1.5497 42.1651 1.6386C42.3858 1.72751 42.5865 1.85978 42.7553 2.0276C42.924 2.19542 43.0574 2.39538 43.1475 2.61564C43.2377 2.83591 43.2827 3.07201 43.28 3.30999C43.2837 3.55209 43.2377 3.79238 43.1448 4.01598C43.0519 4.23959 42.9141 4.44176 42.74 4.60999C42.5757 4.78713 42.3759 4.92767 42.1536 5.02243C41.9313 5.1172 41.6916 5.16407 41.45 5.15999C41.2093 5.16411 40.9704 5.11824 40.7484 5.02529C40.5263 4.93234 40.326 4.79433 40.16 4.61999C39.9891 4.44986 39.8541 4.24711 39.763 4.02379C39.672 3.80047 39.6267 3.56113 39.63 3.31999C39.626 3.08081 39.672 2.84344 39.765 2.62305C39.858 2.40265 39.9959 2.20407 40.17 2.03999ZM42.93 7.89999V18.73H39.93V7.89999H42.93Z" fill="white"/>
<path d="M45.81 7.9H48.81V9.26C49.2003 8.70908 49.7139 8.25704 50.31 7.94C50.9076 7.675 51.5564 7.54525 52.21 7.56C52.7976 7.53012 53.3846 7.63024 53.9291 7.85321C54.4735 8.07619 54.9621 8.41654 55.36 8.85C55.991 9.71714 56.2924 10.7807 56.21 11.85V18.73H53.21V12.73C53.256 12.1341 53.1529 11.5361 52.91 10.99C52.7258 10.6946 52.4619 10.4573 52.1488 10.3051C51.8357 10.153 51.4861 10.0923 51.14 10.13C49.61 10.13 48.84 11.13 48.84 13.13V18.73H45.84L45.81 7.9Z" fill="white"/>
<path d="M70.42 7.9V18.33C70.4468 19.2015 70.356 20.0727 70.15 20.92C69.9503 21.5553 69.6083 22.1367 69.15 22.62C68.5575 23.2754 67.8239 23.7879 67.0046 24.1187C66.1853 24.4496 65.3016 24.5902 64.42 24.53C63.4847 24.5736 62.5537 24.379 61.7141 23.9645C60.8746 23.55 60.154 22.9291 59.62 22.16C59.1695 21.5194 58.8844 20.7774 58.79 20H62.1C62.194 20.5881 62.5096 21.1178 62.982 21.4805C63.4543 21.8431 64.0476 22.0111 64.64 21.95C65.0092 21.9583 65.3763 21.8927 65.7198 21.757C66.0633 21.6213 66.3761 21.4183 66.64 21.16C67.141 20.518 67.3836 19.7118 67.32 18.9V17.28C66.8512 17.8476 66.2774 18.3195 65.63 18.67C65.005 18.9623 64.3197 19.1028 63.63 19.08C62.9374 19.0986 62.2489 18.967 61.6119 18.6942C60.975 18.4215 60.4046 18.0141 59.94 17.5C58.9402 16.3783 58.4165 14.9113 58.48 13.41C58.427 11.8761 58.9638 10.3802 59.98 9.23C60.4364 8.69716 61.0045 8.27133 61.6439 7.98271C62.2834 7.69409 62.9785 7.54977 63.68 7.56C64.3783 7.5479 65.0696 7.69996 65.6984 8.00392C66.3272 8.30788 66.8758 8.75524 67.3 9.31V7.9H70.42ZM66.93 11.17C66.6533 10.883 66.3206 10.6559 65.9524 10.5028C65.5843 10.3497 65.1887 10.2738 64.79 10.28C64.3911 10.2764 63.9956 10.3523 63.6264 10.5034C63.2572 10.6545 62.9219 10.8777 62.64 11.16C62.3527 11.4395 62.1244 11.7738 61.9685 12.1431C61.8126 12.5124 61.7323 12.9092 61.7323 13.31C61.7323 13.7108 61.8126 14.1076 61.9685 14.4769C62.1244 14.8462 62.3527 15.1804 62.64 15.46C63.0571 15.9016 63.5985 16.2063 64.1925 16.3336C64.7865 16.4609 65.4051 16.4048 65.9666 16.1729C66.528 15.9409 67.0058 15.544 67.3368 15.0346C67.6677 14.5251 67.8363 13.9273 67.82 13.32C67.8223 12.9204 67.7448 12.5244 67.592 12.1552C67.4391 11.786 67.2141 11.451 66.93 11.17V11.17Z" fill="white"/>
<path d="M2.63 75.58C3.4614 74.7644 4.44628 74.1217 5.52766 73.6892C6.60904 73.2566 7.76545 73.0428 8.93 73.06C10.095 73.0347 11.2531 73.2458 12.3342 73.6807C13.4153 74.1155 14.397 74.7651 15.22 75.59C16.04 76.401 16.6909 77.3665 17.1352 78.4307C17.5795 79.495 17.8082 80.6368 17.8082 81.79C17.8082 82.9433 17.5795 84.0851 17.1352 85.1493C16.6909 86.2135 16.04 87.1791 15.22 87.99C14.3761 88.8099 13.3772 89.4533 12.2818 89.8826C11.1863 90.3118 10.0162 90.5183 8.84 90.49C7.67048 90.5203 6.50716 90.3106 5.42187 89.8737C4.33659 89.4368 3.35237 88.7821 2.53 87.95C1.70513 87.1415 1.05498 86.1724 0.619795 85.1025C0.184613 84.0326 -0.0263388 82.8847 -2.81422e-06 81.73C-0.0184333 80.5777 0.206261 79.4344 0.659425 78.3747C1.11259 77.315 1.78404 76.3627 2.63 75.58V75.58ZM12.85 77.73C12.3502 77.191 11.7434 76.7622 11.0684 76.4712C10.3934 76.1802 9.66504 76.0333 8.93 76.04C8.19223 76.0348 7.46136 76.1823 6.78331 76.4731C6.10527 76.7639 5.49471 77.1919 4.99 77.73C3.94131 78.8215 3.35563 80.2764 3.35563 81.79C3.35563 83.3036 3.94131 84.7586 4.99 85.85C5.49419 86.3875 6.10511 86.8136 6.78359 87.1012C7.46208 87.3888 8.19317 87.5314 8.93 87.52C9.66672 87.5281 10.397 87.3819 11.0738 87.0909C11.7507 86.7998 12.3591 86.3703 12.86 85.83C13.9064 84.7374 14.4905 83.2829 14.4905 81.77C14.4905 80.2571 13.9064 78.8027 12.86 77.71L12.85 77.73Z" fill="white"/>
<path d="M23.38 84.91V90.11H20.38V79.29H23.38V80.94C23.659 80.3405 24.104 79.8335 24.6623 79.479C25.2206 79.1246 25.8687 78.9375 26.53 78.94C26.9832 78.9447 27.4313 79.0363 27.85 79.21L27.42 82.03C26.9811 81.7827 26.4836 81.6583 25.98 81.67C24.25 81.67 23.38 82.73 23.38 84.91Z" fill="white"/>
<path d="M29.66 73.42C29.8305 73.2495 30.0333 73.1148 30.2565 73.0238C30.4797 72.9328 30.7189 72.8873 30.96 72.89C31.2002 72.89 31.4381 72.9378 31.6596 73.0306C31.8812 73.1234 32.0821 73.2594 32.2506 73.4307C32.419 73.602 32.5517 73.8051 32.6409 74.0281C32.7301 74.2512 32.774 74.4898 32.77 74.73C32.7731 74.972 32.7268 75.2121 32.634 75.4357C32.5411 75.6592 32.4036 75.8614 32.23 76.03C32.0633 76.2034 31.8628 76.3408 31.6409 76.4336C31.4191 76.5265 31.1805 76.5729 30.94 76.57C30.5779 76.5712 30.2237 76.4645 29.9226 76.2633C29.6216 76.0622 29.3873 75.7758 29.2499 75.4408C29.1125 75.1058 29.0781 74.7375 29.1511 74.3828C29.2242 74.0282 29.4014 73.7034 29.66 73.45V73.42ZM32.44 79.29V90.11H29.44V79.29H32.44Z" fill="white"/>
<path d="M46.61 79.29V89.73C46.6354 90.6009 46.548 91.4715 46.35 92.32C46.1457 92.9563 45.8043 93.54 45.35 94.03C44.7585 94.6834 44.0263 95.194 43.2086 95.5231C42.391 95.8523 41.5093 95.9914 40.63 95.93C39.6944 95.9755 38.7627 95.7818 37.9228 95.3671C37.083 94.9524 36.3627 94.3305 35.83 93.56C35.3722 92.9233 35.0863 92.1794 35 91.4H38.31C38.3924 91.9972 38.703 92.5392 39.1767 92.9122C39.6503 93.2851 40.2501 93.46 40.85 93.4C41.2199 93.407 41.5874 93.3398 41.9309 93.2024C42.2744 93.065 42.5869 92.8602 42.85 92.6C43.353 91.9625 43.5992 91.1599 43.54 90.35V88.66C43.0971 89.2219 42.5505 89.6938 41.93 90.05C41.3065 90.3479 40.6207 90.492 39.93 90.47C39.2367 90.4867 38.5479 90.3532 37.911 90.0788C37.2741 89.8043 36.7041 89.3954 36.24 88.88C35.2439 87.7561 34.7207 86.2906 34.78 84.79C34.7295 83.2595 35.2662 81.7677 36.28 80.62C36.73 80.0918 37.2896 79.668 37.9199 79.3779C38.5502 79.0877 39.2361 78.9383 39.93 78.94C40.6391 78.9303 41.3407 79.0871 41.9781 79.398C42.6155 79.709 43.1711 80.1652 43.6 80.73V79.33L46.61 79.29ZM43.08 82.56C42.5968 82.064 41.9569 81.7503 41.2689 81.6723C40.5808 81.5944 39.887 81.7568 39.305 82.1321C38.7231 82.5074 38.2889 83.0725 38.0761 83.7314C37.8633 84.3904 37.8851 85.1027 38.1376 85.7474C38.3902 86.3922 38.858 86.9297 39.4617 87.2689C40.0655 87.608 40.768 87.7278 41.45 87.608C42.132 87.4882 42.7516 87.1362 43.2036 86.6116C43.6556 86.087 43.9123 85.4222 43.93 84.73C43.9443 84.3294 43.8762 83.9301 43.73 83.5569C43.5838 83.1836 43.3626 82.8443 43.08 82.56Z" fill="white"/>
<path d="M49.71 73.42C49.8801 73.2491 50.0829 73.1141 50.3062 73.023C50.5295 72.932 50.7688 72.8868 51.01 72.89C51.2482 72.8866 51.4846 72.9318 51.7047 73.023C51.9248 73.1141 52.1239 73.2492 52.29 73.42C52.4638 73.5896 52.5999 73.794 52.6894 74.0197C52.779 74.2454 52.8201 74.4874 52.81 74.73C52.8131 74.972 52.7668 75.2121 52.674 75.4357C52.5811 75.6592 52.4437 75.8614 52.27 76.03C52.1016 76.2011 51.9008 76.337 51.6793 76.4298C51.4578 76.5226 51.2201 76.5704 50.98 76.5704C50.7399 76.5704 50.5022 76.5226 50.2807 76.4298C50.0592 76.337 49.8584 76.2011 49.69 76.03C49.5177 75.8609 49.3817 75.6584 49.2906 75.4348C49.1994 75.2112 49.155 74.9714 49.16 74.73C49.1531 74.4851 49.1986 74.2415 49.2934 74.0156C49.3883 73.7896 49.5303 73.5866 49.71 73.42V73.42ZM52.48 79.29V90.11H49.48V79.29H52.48Z" fill="white"/>
<path d="M55.34 79.29H58.34V80.64C58.7243 80.0901 59.2354 79.6408 59.83 79.33C60.4252 79.0567 61.0752 78.9233 61.73 78.94C62.3266 78.9038 62.9237 79.0018 63.4775 79.2268C64.0313 79.4518 64.5276 79.798 64.93 80.24C65.565 81.1052 65.8668 82.1703 65.78 83.24V90.11H62.78V84.11C62.8224 83.51 62.7159 82.9089 62.47 82.36C62.2844 82.0665 62.02 81.8311 61.707 81.6808C61.394 81.5305 61.045 81.4713 60.7 81.51C59.17 81.51 58.41 82.51 58.41 84.51V90.11H55.41L55.34 79.29Z" fill="white"/>
<path d="M76.93 79.29H79.93V90.11H76.93V88.73C76.5063 89.2854 75.9578 89.7332 75.329 90.0372C74.7001 90.3412 74.0084 90.4929 73.31 90.48C72.6062 90.4897 71.9085 90.3472 71.2648 90.0625C70.621 89.7777 70.0464 89.3573 69.58 88.83C68.5633 87.712 68.0248 86.2402 68.08 84.73C68.0378 83.2134 68.5864 81.7398 69.61 80.62C70.0671 80.0906 70.6339 79.667 71.2711 79.3786C71.9083 79.0902 72.6006 78.944 73.3 78.95C73.9998 78.9558 74.6893 79.1187 75.3176 79.4268C75.946 79.7349 76.497 80.1803 76.93 80.73V79.29ZM76.37 82.56C76.0937 82.2698 75.7596 82.0406 75.3893 81.8873C75.019 81.7341 74.6207 81.66 74.22 81.67C73.8189 81.661 73.4202 81.7344 73.0487 81.8858C72.6771 82.0372 72.3406 82.2633 72.06 82.55C71.6162 82.9688 71.3106 83.513 71.184 84.11C71.0575 84.707 71.116 85.3284 71.3518 85.8912C71.5876 86.4541 71.9894 86.9316 72.5037 87.2602C73.018 87.5887 73.6202 87.7526 74.23 87.73C74.6289 87.7336 75.0245 87.6577 75.3937 87.5066C75.7628 87.3555 76.0982 87.1323 76.38 86.85C76.6646 86.5756 76.8903 86.2461 77.0433 85.8816C77.1963 85.5171 77.2735 85.1253 77.27 84.73C77.2776 84.3285 77.2046 83.9295 77.0551 83.5568C76.9057 83.184 76.6829 82.8451 76.4 82.56H76.37Z" fill="white"/>
<path d="M85.93 71.39V90.11H82.93V71.39H85.93Z" fill="white"/>
<path d="M2.62999 146.96C3.46189 146.146 4.44708 145.505 5.5285 145.074C6.60991 144.643 7.76607 144.431 8.92999 144.45C10.0941 144.425 11.2512 144.635 12.332 145.068C13.4128 145.501 14.3951 146.148 15.22 146.97C16.0568 147.772 16.7182 148.739 17.1622 149.809C17.6063 150.88 17.8235 152.031 17.8 153.19C17.8229 154.346 17.6033 155.494 17.1555 156.56C16.7077 157.626 16.0416 158.587 15.2 159.38C14.3548 160.198 13.3557 160.84 12.2605 161.269C11.1654 161.699 9.99594 161.906 8.81999 161.88C7.65078 161.908 6.48815 161.697 5.4032 161.26C4.31825 160.824 3.33378 160.17 2.50999 159.34C1.6858 158.535 1.03524 157.569 0.598404 156.503C0.161567 155.437 -0.0522962 154.292 -0.0300064 153.14C-0.0463482 151.981 0.182131 150.831 0.640497 149.766C1.09886 148.701 1.7768 147.745 2.62999 146.96V146.96ZM12.85 149.1C12.35 148.563 11.7427 148.136 11.0674 147.849C10.3921 147.561 9.66392 147.418 8.92999 147.43C8.19343 147.42 7.4629 147.564 6.78468 147.851C6.10646 148.139 5.49533 148.564 4.98999 149.1C3.94196 150.19 3.35656 151.643 3.35656 153.155C3.35656 154.667 3.94196 156.12 4.98999 157.21C5.49086 157.753 6.10069 158.184 6.77963 158.475C7.45857 158.767 8.19132 158.911 8.92999 158.9C9.66699 158.91 10.3978 158.765 11.0749 158.473C11.752 158.182 12.3603 157.752 12.86 157.21C13.9057 156.119 14.4896 154.666 14.4896 153.155C14.4896 151.644 13.9057 150.191 12.86 149.1H12.85Z" fill="white"/>
<path d="M23.41 153.3V161.5H20.41V153.3H19.21V150.67H20.41V146.97H23.41V150.67H25.55V153.3H23.41Z" fill="white"/>
<path d="M27.29 142.73H30.29V152.04C30.6703 151.495 31.1777 151.05 31.7684 150.746C32.3591 150.441 33.0152 150.284 33.68 150.29C34.2723 150.256 34.8647 150.357 35.4122 150.586C35.9597 150.814 36.4479 151.165 36.84 151.61C37.4706 152.496 37.7713 153.575 37.69 154.66V161.46H34.69V155.54C34.7361 154.921 34.6332 154.301 34.39 153.73C34.2066 153.433 33.9436 153.193 33.6308 153.037C33.3179 152.881 32.9678 152.817 32.62 152.85C31.09 152.85 30.32 153.85 30.32 155.9V161.46H27.32L27.29 142.73Z" fill="white"/>
<path d="M51.25 156.58H43.13C43.21 158.52 44.13 159.48 45.78 159.47C46.2987 159.472 46.809 159.339 47.2612 159.085C47.7134 158.831 48.092 158.464 48.36 158.02L51.15 158.47C50.7523 159.532 50.0204 160.435 49.0644 161.045C48.1085 161.655 46.9804 161.937 45.85 161.85C45.0754 161.888 44.3013 161.768 43.5742 161.498C42.8472 161.228 42.1824 160.814 41.62 160.28C40.6072 159.121 40.0491 157.634 40.0491 156.095C40.0491 154.556 40.6072 153.069 41.62 151.91C42.1612 151.375 42.8079 150.958 43.5189 150.686C44.2299 150.414 44.9897 150.293 45.75 150.33C46.4982 150.291 47.2463 150.41 47.9457 150.679C48.6451 150.948 49.2802 151.36 49.81 151.89C50.8459 153.071 51.3773 154.611 51.29 156.18L51.25 156.58ZM45.78 152.5C45.1712 152.481 44.5755 152.679 44.1 153.06C43.6321 153.471 43.3241 154.034 43.23 154.65H48.36C48.2824 154.031 47.9729 153.465 47.4939 153.066C47.015 152.667 46.4024 152.465 45.78 152.5V152.5Z" fill="white"/>
<path d="M56.57 156.3V161.5H53.57V150.67H56.57V152.32C56.848 151.72 57.2928 151.212 57.8513 150.857C58.4098 150.503 59.0585 150.316 59.72 150.32C60.1732 150.325 60.6214 150.416 61.04 150.59L60.61 153.41C60.1719 153.16 59.6745 153.032 59.17 153.04C57.44 153.05 56.57 154.13 56.57 156.3Z" fill="white"/>
</g>
<defs>
<clipPath id="clip0_1_2">
<rect width="85.9" height="161.87" fill="white"/>
</clipPath>
</defs>
</svg>
